<svg width="32" height="32" viewBox="0 0 32 32" fill="none" xmlns="http://www.w3.org/2000/svg">
<path d="M16 0.5C18.1483 0.5 20.1606 0.907433 22.042 1.71875V1.71777C23.9331 2.53432 25.5733 3.63969 26.9668 5.0332C28.2732 6.33961 29.3256 7.86295 30.124 9.60645L30.2803 9.95801C31.0926 11.8393 31.5 13.8518 31.5 16C31.5 18.0139 31.1418 19.9084 30.4277 21.6875L30.2803 22.042C29.4648 23.933 28.3603 25.5733 26.9668 26.9668C25.6604 28.2732 24.1371 29.3256 22.3936 30.124L22.042 30.2803C20.1607 31.0926 18.1482 31.5 16 31.5C13.9861 31.5 12.0916 31.1418 10.3125 30.4277L9.95801 30.2803C8.06698 29.4648 6.42666 28.3603 5.0332 26.9668C3.72679 25.6604 2.67438 24.137 1.87598 22.3936L1.71973 22.042C0.907399 20.1607 0.5 18.1482 0.5 16C0.5 13.9861 0.858161 12.0916 1.57227 10.3125L1.71973 9.95801C2.5352 8.06698 3.63974 6.42666 5.0332 5.0332C6.42671 3.63969 8.06689 2.53432 9.95801 1.71777V1.71875C11.8394 0.907433 13.8517 0.5 16 0.5ZM22.7998 10.0195C22.2275 10.0196 21.7224 10.2102 21.3262 10.6064L13.7598 18.1729L10.6338 15.0469C10.2438 14.6569 9.75516 14.46 9.2002 14.46C8.63225 14.46 8.13402 14.6795 7.72656 15.0869C7.33052 15.4831 7.13974 15.9874 7.13965 16.5596C7.13965 17.1319 7.33038 17.637 7.72656 18.0332L12.2861 22.5938C12.6823 22.99 13.1875 23.1796 13.7598 23.1797C14.3321 23.1797 14.8372 22.9899 15.2334 22.5938L24.3135 13.5137C24.7035 13.1236 24.9004 12.6351 24.9004 12.0801C24.9004 11.5121 24.6809 11.0139 24.2734 10.6064C23.8772 10.2102 23.3722 10.0195 22.7998 10.0195Z" fill="#DEEDF4" stroke="#1F2F56"/>
</svg>
