<svg width="16" height="16" viewBox="0 0 16 16" fill="none" xmlns="http://www.w3.org/2000/svg">
<path fill-rule="evenodd" clip-rule="evenodd" d="M13.3861 1.43934C12.8003 0.853553 11.8505 0.853554 11.2647 1.43934L9.70711 2.99698L12 5.28987L13.5576 3.73223C14.1434 3.14645 14.1434 2.1967 13.5576 1.61091L13.3861 1.43934ZM11.2929 5.99698L9 3.70409L2 10.7041L2 12.997L4.29289 12.997L11.2929 5.99698ZM10.5576 0.732233C11.5339 -0.244077 13.1169 -0.244078 14.0932 0.732233L14.2647 0.903805C15.2411 1.88012 15.2411 3.46303 14.2647 4.43934L4.70711 13.997L1 13.997L1 10.2899L10.5576 0.732233ZM16 15.997H0V14.997H16V15.997Z" fill="#767676"/>
</svg>
