<?xml version="1.0" encoding="UTF-8"?>
<svg id="_레이어_1" data-name="레이어 1" xmlns="http://www.w3.org/2000/svg" xmlns:xlink="http://www.w3.org/1999/xlink" viewBox="0 0 691.71 675.99">
  <defs>
    <style>
      .cls-1 {
        fill: url(#_무제_그라디언트_789);
      }

      .cls-2 {
        fill: url(#_무제_그라디언트_873);
      }

      .cls-3 {
        fill: url(#_무제_그라디언트_904);
      }

      .cls-4 {
        fill: #e6e6e6;
      }
    </style>
    <linearGradient id="_무제_그라디언트_873" data-name="무제 그라디언트 873" x1="353.21" y1="317.48" x2="474.67" y2="396.35" gradientUnits="userSpaceOnUse">
      <stop offset="0" stop-color="#00193f"/>
      <stop offset=".03" stop-color="#072348"/>
      <stop offset=".2" stop-color="#2b5272"/>
      <stop offset=".35" stop-color="#467793"/>
      <stop offset=".5" stop-color="#5a92aa"/>
      <stop offset=".62" stop-color="#66a2b8"/>
      <stop offset=".72" stop-color="#6ba8be"/>
    </linearGradient>
    <linearGradient id="_무제_그라디언트_789" data-name="무제 그라디언트 789" x1="30.76" y1="594.4" x2="592.29" y2="32.87" gradientUnits="userSpaceOnUse">
      <stop offset="0" stop-color="#00193f"/>
      <stop offset=".28" stop-color="#295170"/>
      <stop offset=".91" stop-color="#92ddec"/>
      <stop offset="1" stop-color="#a2f2ff"/>
    </linearGradient>
    <linearGradient id="_무제_그라디언트_904" data-name="무제 그라디언트 904" x1="99.57" y1="452.5" x2="430.5" y2="-120.7" gradientUnits="userSpaceOnUse">
      <stop offset="0" stop-color="#1f2f56"/>
      <stop offset=".44" stop-color="#57839f"/>
      <stop offset="1" stop-color="#a2f2ff"/>
    </linearGradient>
  </defs>
  <g>
    <path class="cls-4" d="M397.08,301.51h149.2s-29.5,151.34-126.54,150.06-110.72,0-110.72,0l88.07-150.06Z"/>
    <path class="cls-4" d="M18.67,440.38v101.11c0,65.46,80.3,148.13,181.55,132.6,49.02-140.79,245.46-414.9,491.49-537.59,0,0-11.69-13.61-33.49-6.77-21.8,6.84-89.85,35.98-89.85,35.98,0,0-72.46-31.42-78.45-32.56s-22.52,2.28-22.52,2.28l39.33,58.14S68.97,408.75,18.67,440.38Z"/>
    <path class="cls-4" d="M656.3,20.43H145s-62.1,6.78-101.91,67.65c-17.44,26.66-26.34,58-26.34,89.86v237.52l170.15-87.21.86-99.18s3.42-50.45,58.14-50.45h226.58l60.04,1.27s-47.88-11.54-23.94-5.56c23.94,5.99,59.66-30.76,59.66-30.76,0,0,36.77-11.12,57.29-41.04,20.52-29.93,30.78-82.08,30.78-82.08Z"/>
  </g>
  <g>
    <path class="cls-2" d="M378.42,278.66h149.2s-29.5,151.34-126.54,150.06-110.72,0-110.72,0l88.07-150.06Z"/>
    <path class="cls-1" d="M0,417.53v101.11c0,65.46,80.3,148.13,181.55,132.6,49.02-140.79,245.46-414.9,491.49-537.59,0,0-11.69-13.61-33.49-6.77-21.8,6.84-89.85,35.98-89.85,35.98,0,0-72.46-31.42-78.45-32.56s-22.52,2.28-22.52,2.28l39.33,58.14S50.3,385.9,0,417.53Z"/>
    <path class="cls-3" d="M639.55,0H128.25S66.15,6.78,26.34,67.65C8.91,94.31,0,125.65,0,157.5v237.52l170.15-87.21.86-99.18s3.42-50.45,58.14-50.45h226.58l-35.06-56.43s23.94-13.68,47.88-7.7,82.94,29.07,82.94,29.07c0,0,36.77-11.12,57.29-41.04,20.52-29.93,30.78-82.08,30.78-82.08Z"/>
  </g>
</svg>